<svg width="1383" height="1478" viewBox="0 0 1383 1478" fill="none" xmlns="http://www.w3.org/2000/svg">
<g opacity="0.5">
<path d="M388.223 1024.23C368.522 981.13 315.087 989.403 315.087 989.403C372.149 937.826 388.223 1024.23 388.223 1024.23Z" fill="white" fill-opacity="0.3"/>
<path d="M308.74 953.495C308.74 953.495 342.457 902.086 389.223 913.406C435.972 924.733 420.271 1008.85 420.271 1008.85C420.271 1008.85 398.272 923.217 308.756 953.487L308.74 953.495Z" fill="white" fill-opacity="0.3"/>
<path d="M415.405 814.487C432.909 801.976 436.453 771.793 387.927 763.172C387.927 763.172 452.348 760.539 471.556 857.513C490.764 954.487 430.669 1007.16 430.669 1007.16C430.669 1007.16 473.855 949.586 417.552 908.001C361.233 866.423 397.925 827.006 415.429 814.495L415.405 814.487Z" fill="white" fill-opacity="0.3"/>
<path d="M298.357 700.932C367.967 623.14 491.112 684.976 516.069 782.604C541.017 880.256 484.317 978.49 450.415 1006.56C450.415 1006.56 533.071 910.636 500.74 820.14C468.392 729.652 370.989 690.523 315.23 724.759C259.479 759.011 287.929 808.248 302.233 823.037C302.233 823.037 228.757 778.7 298.366 700.908L298.357 700.932Z" fill="white" fill-opacity="0.3"/>
<path d="M326.408 586.202C500.561 554.929 566.603 699.656 564.934 800.732C563.258 901.792 470.183 1011.8 470.183 1011.8C470.183 1011.8 583.199 856.048 532.84 745.22C482.481 634.392 348.091 606.224 259.381 685.412C170.67 764.6 226.945 874.673 299.654 875.92C372.362 877.167 398.012 776.743 334.379 753.961C334.379 753.961 392.197 757.847 377.883 836.292C363.561 914.76 255.103 920.207 206.227 852.557C157.344 784.89 152.249 617.458 326.401 586.185L326.408 586.202Z" fill="white" fill-opacity="0.3"/>
<path d="M549.978 915.537C549.978 915.537 673.295 684.502 512.571 613.897C512.571 613.897 578.814 614.402 603.631 644.991C603.631 644.991 641.51 632.685 653.222 687.975C664.934 743.266 604.849 870.258 549.978 915.537Z" fill="white" fill-opacity="0.3"/>
<path d="M509.844 525.425C509.844 525.425 475.94 503.95 458.177 531.015C440.43 558.073 477.762 593.776 477.762 593.776C477.762 593.776 422.135 583.593 413.784 524.33C405.449 465.059 499.926 460.858 509.836 525.408L509.844 525.425Z" fill="white" fill-opacity="0.3"/>
<path d="M348.062 457.614C352.987 384.604 446.577 394.153 450.143 450.668C450.143 450.668 425.277 426.624 395.774 442.093C366.271 457.563 364.719 538.981 426.149 580.432C426.149 580.432 343.129 530.607 348.054 457.597L348.062 457.614Z" fill="white" fill-opacity="0.3"/>
<path d="M395.268 573.95C396.516 574.588 397.764 575.226 399.023 575.8C399.023 575.8 397.637 575.165 395.268 573.95Z" fill="white" fill-opacity="0.3"/>
<path d="M435.551 333.099C480.196 350.007 499.642 395.276 465.674 461.215C465.674 461.215 493.677 402.575 449.386 370.413C405.079 338.258 332.599 378.541 322.964 435.704C313.656 490.988 352.153 551.208 394.721 573.625C375.361 563.529 297.696 517.521 305.091 432.857C313.518 336.225 390.938 316.176 435.559 333.075L435.551 333.099Z" fill="white" fill-opacity="0.3"/>
<path d="M357.511 569.458C357.511 569.458 264.78 589.895 245.779 522.093C226.777 454.291 290.576 426.077 290.576 426.077C238.64 539.456 357.511 569.458 357.511 569.458Z" fill="white" fill-opacity="0.3"/>
<path d="M290.939 584.216C212.73 580.133 218.245 644.897 197.439 623.497C176.641 602.114 222.75 538.32 222.75 538.32C236.242 578.516 290.939 584.216 290.939 584.216Z" fill="white" fill-opacity="0.3"/>
<path d="M586.181 605.306C519.908 607.24 532.287 501.83 616.708 543.814C701.146 585.789 674.555 679.806 674.555 679.806C673.587 630.147 652.437 603.378 586.164 605.313L586.181 605.306Z" fill="white" fill-opacity="0.3"/>
<path d="M578.718 526.765C521.128 525.101 532.247 439.458 611.759 474.535C691.255 509.619 674.79 586.37 674.79 586.37C663.619 540.851 636.326 528.422 578.735 526.758L578.718 526.765Z" fill="white" fill-opacity="0.3"/>
<path d="M571.451 453.265C532.376 453.039 535.517 386.517 597.868 406.946C660.203 427.383 661.052 487.237 661.052 487.237C638.6 448.223 610.532 453.508 571.451 453.265Z" fill="white" fill-opacity="0.3"/>
<path d="M545.338 390.665C519.591 386.173 523.191 339.441 572.674 353.209C622.156 366.976 632.143 408.626 632.143 408.626C601.294 374.869 571.07 395.164 545.338 390.665Z" fill="white" fill-opacity="0.3"/>
<path d="M515.245 332.761C503.804 322.678 510.789 296.3 546.404 307.284C582.02 318.268 598.492 343.512 598.492 343.512C562.46 311.107 526.686 342.844 515.245 332.761Z" fill="white" fill-opacity="0.3"/>
<path d="M830.387 556.518C769.563 596.724 717.715 622.698 692.738 680.223C692.738 680.223 729.457 547.564 785.104 514.036C840.768 480.5 891.204 516.295 830.387 556.518Z" fill="white" fill-opacity="0.3"/>
<path d="M705.192 592.813C705.192 592.813 716.242 486.285 753.57 447.689C790.899 409.092 833.253 420.633 834.398 454.265C835.551 487.912 737.097 476.347 705.192 592.813Z" fill="white" fill-opacity="0.3"/>
<path d="M767.424 416.538C713.666 440.09 703.441 502.277 701.59 518.081C701.59 518.081 687.199 417.319 734.792 371.91C782.386 326.501 821.205 392.994 767.431 416.554L767.424 416.538Z" fill="white" fill-opacity="0.3"/>
<path d="M738.933 349.068C695.482 384.041 689.308 424.103 686.874 444.947C686.874 444.947 664.926 377.527 702.452 318.54C739.986 259.569 782.383 314.096 738.949 349.061L738.933 349.068Z" fill="white" fill-opacity="0.3"/>
<path d="M699.6 299.296C679.776 325.382 654.512 354.468 664.783 384.813C664.783 384.813 633.451 335.234 657.23 287.763C681.026 240.285 719.409 273.218 699.584 299.304L699.6 299.296Z" fill="white" fill-opacity="0.3"/>
<path d="M634.341 284.342C621.994 302.571 630.538 329.079 633.45 335.234C633.45 335.234 594.385 295.676 610.874 267.01C627.347 238.351 646.671 266.12 634.341 284.342Z" fill="white" fill-opacity="0.3"/>
<path d="M667.811 737.29C711.469 605.453 687.052 523.9 661.221 429.557C635.39 335.214 515.782 228.883 390.829 258.882C265.877 288.881 291.772 391.009 291.772 391.009C272.945 369.374 265.494 300.49 332.668 257.878C399.841 215.267 613.575 231.626 671.935 437.628C730.311 643.623 667.818 737.306 667.818 737.306L667.811 737.29Z" fill="white" fill-opacity="0.3"/>
<path d="M901.65 623.905C776.364 689.807 719.673 742.406 679.213 789.144C638.752 835.883 630.697 846.589 594.069 877.248C594.069 877.248 646.361 829 669.232 766.598C692.104 704.197 768.577 623.822 836.653 590.04C904.737 556.274 992.364 496.633 989.759 419.573C989.759 419.573 1026.93 557.986 901.65 623.905Z" fill="white" fill-opacity="0.3"/>
<path d="M485.953 1172.49C499.41 1165.7 526.055 1143.37 499.762 1097.91C473.453 1052.46 402.392 1039.98 402.392 1039.98C402.392 1039.98 474.77 1029.41 520.001 1094.8C565.232 1160.19 496.744 1214.5 459.77 1192.75C422.789 1170.98 440.009 1132.46 440.009 1132.46C436.065 1172.31 472.521 1179.29 485.977 1172.5L485.953 1172.49Z" fill="white" fill-opacity="0.3"/>
<path d="M888.624 1015.8C873.899 917.9 965.962 890.831 1006.97 901.48C1047.98 912.129 1052.75 952.027 1049.62 966.23C1046.5 980.434 1015.59 989.191 1008.82 972.365C1008.82 972.365 1039.5 983.99 1041.74 958.743C1043.98 933.497 994.001 899.955 956.311 923.209C918.604 946.471 914.481 1055.99 1034.07 1061.29C1153.66 1066.6 1223.59 911.621 1178.73 803.629C1133.85 695.644 952.255 653.896 828.063 718.718C703.886 783.533 487.278 1021.09 487.278 1021.09C487.278 1021.09 703.24 733.189 916.694 665.016C1130.17 596.836 1344.86 803.227 1278.61 1019.84C1212.36 1236.46 1044.18 1179.79 1026.42 1132.53C1026.42 1132.53 903.325 1113.7 888.6 1015.79L888.624 1015.8Z" fill="white" fill-opacity="0.3"/>
<path d="M820.475 975.736C853.601 904.598 759.038 847.579 677.385 885.344C595.733 923.108 500.208 1029.17 500.208 1029.17C500.208 1029.17 624.419 871.093 727.183 846.018C829.939 820.928 864.904 889.155 865.68 932.222C866.44 975.296 804.411 1081.65 711.405 1005.16C711.405 1005.16 787.374 1046.88 820.508 975.721L820.475 975.736Z" fill="white" fill-opacity="0.3"/>
<path d="M669.597 914.299C711.154 901.691 803.647 932.96 745.914 990.293C745.914 990.293 760.288 954.827 722.565 953.303C722.565 953.303 729.629 998.585 659.876 996.932C590.13 995.296 538.275 1021.25 510.117 1037.61C510.117 1037.61 628.032 926.89 669.589 914.282L669.597 914.299Z" fill="white" fill-opacity="0.3"/>
<path d="M523.799 1064C523.799 1064 573.596 1024.68 626.478 1027.26C679.361 1029.84 695.261 1055.74 677.502 1070.42C677.502 1070.42 698.841 1093.32 658.532 1114.08C658.532 1114.08 696.723 1036.98 523.806 1064.02L523.799 1064Z" fill="white" fill-opacity="0.3"/>
<path d="M544.231 1088.18C544.231 1088.18 665.761 1064.57 627.335 1149.68C627.335 1149.68 630.082 1095.35 544.231 1088.18Z" fill="white" fill-opacity="0.3"/>
<path d="M552.182 1118.54C552.182 1118.54 618.074 1121.91 598.145 1180.04C598.145 1180.04 579.483 1121.74 552.182 1118.54Z" fill="white" fill-opacity="0.3"/>
<path d="M484.405 1103.77C500.249 1130.68 462.315 1152.97 462.315 1152.97C462.315 1152.97 484.486 1105.24 444.094 1098.78C444.094 1098.78 468.56 1076.87 484.405 1103.77Z" fill="white" fill-opacity="0.3"/>
<path d="M1113.52 1024C1113.52 1024 1042.21 1066.63 992.121 1027.95C942.012 989.281 970.91 916.907 1016.5 950.679C1016.5 950.679 984.251 958.545 990.428 992.783C996.604 1027.02 1065.76 1046.09 1113.53 1024L1113.52 1024Z" fill="white" fill-opacity="0.3"/>
<path d="M720.613 821.205C720.613 821.205 774.168 756.092 855.624 763.472C937.081 770.852 914.228 835.194 914.228 835.194C914.228 835.194 941.495 869.724 911.033 899.653C911.033 899.653 882.857 779.786 720.622 821.181L720.613 821.205Z" fill="white" fill-opacity="0.3"/>
<path d="M828.513 739.907C828.513 739.907 909.8 699.189 953.919 720.396C998.045 741.619 954.604 776.567 954.604 776.567C960.322 771.41 971.81 747.989 933.939 735.518C896.051 723.054 828.505 739.89 828.505 739.89L828.513 739.907Z" fill="white" fill-opacity="0.3"/>
<path d="M988.053 795.804C1018.79 800.861 1040.72 781.583 1027.27 747.232C1013.82 712.864 960.315 709.497 960.315 709.497C974.735 704.629 1059.92 717.552 1049.1 772.374C1038.29 827.197 988.07 795.797 988.07 795.797L988.053 795.804Z" fill="white" fill-opacity="0.3"/>
<path d="M1111.36 819.031C1088.67 857.171 1033.42 825.164 1033.42 825.164C1130.68 809.642 1067.82 743.238 1067.82 743.238C1067.82 743.238 1134.06 780.884 1111.38 819.024L1111.36 819.031Z" fill="white" fill-opacity="0.3"/>
<path d="M1128.03 612.097C1073.16 606.238 1030.38 596.404 988.07 617.926C988.07 617.926 1073.44 558.211 1122.08 565.486C1170.72 572.761 1182.89 617.956 1128.03 612.097Z" fill="white" fill-opacity="0.3"/>
</g>
</svg>
