<svg width="700" height="397" viewBox="0 0 700 397" fill="none" xmlns="http://www.w3.org/2000/svg">
<g clip-path="url(#clip0_7972_615)">
<path d="M208.529 130.552C208.529 140.207 210.664 154.367 221.575 154.367C229.848 154.367 237.446 141.023 243.224 130.568C243.459 130.144 244.103 130.332 244.056 130.819C243.946 132.153 243.899 133.503 243.899 134.806C243.899 147.099 248.546 157.13 262.957 157.13C264.841 157.13 269.723 155.874 269.723 152.86C269.723 151.981 269.095 152.232 267.84 151.855C265.202 150.976 259.221 148.826 258.436 135.309C257.054 111.949 265.202 101.446 265.202 101.069C265.202 98.432 262.471 96.6109 260.084 96.6109C251.199 96.6109 249.911 102.922 248.028 105.936C248.028 105.952 248.012 105.967 247.996 105.983C243.977 115.261 235.578 130.552 230.068 137.695C227.807 140.584 226.253 142.059 225.17 141.714C211.056 137.114 228.106 99.9548 228.058 98.6989C228.043 98.2436 226.912 95.4649 222.721 94.8369C211.81 93.2199 210.334 104.162 208.607 110.238C205.53 121.07 200.57 136.989 188.042 143.598C184.384 145.529 180.318 139.061 186.284 131.306C186.284 129.045 184.776 128.919 183.269 128.919C179.878 128.919 172.107 131.808 172.107 142.091C172.107 150.615 177.618 156.644 183.144 156.644C195.562 156.644 203.961 138.794 208.482 130.144V130.568L208.529 130.552Z" fill="white"/>
<path d="M271.498 139.862C275.265 138.622 279.237 138.025 279.379 140.694C278.955 149.517 272.455 150.459 272.455 152.468C272.455 156.487 279.253 156.989 282.77 156.989C283.9 156.989 286.412 153.724 287.919 150.851C290.352 146.094 291.938 142.311 293.052 139.375C293.225 138.936 293.602 138.622 294.057 138.527C302.032 136.769 308.798 133.52 314.733 129.187C315.737 128.449 317.15 129.265 316.962 130.49C316.271 135.011 315.675 139.501 316.271 143.834C318.516 159.925 336.742 158.449 343.116 154.022C344.655 152.955 347.967 149.14 346.256 146.66C345.754 145.937 345.377 146.503 344.137 146.911C342.253 147.46 338.595 148.433 333.665 145.152C333.665 145.137 333.665 145.105 333.665 145.09C333.634 145.09 333.587 145.09 333.556 145.09C328.689 139.752 327.841 129.218 343.933 101.447C344.09 101.18 344.137 100.881 344.09 100.599C343.885 99.076 341.829 95.7792 338.108 95.7792C332.347 95.7792 327.684 99.5941 323.932 106.612C318.94 115.89 310.949 123.566 299.348 128.731C298.233 129.218 297.071 128.166 297.448 127.004C298.861 122.703 300.038 119.014 301.373 114.382C302.503 110.112 303.005 105.858 303.005 102.718C303.005 97.9457 296.553 93.8326 291.09 93.0633C287.087 92.4982 289.238 95.4182 288.5 101.431C286.914 113.849 284.842 118.433 282.314 130.05C282.173 130.662 281.655 131.118 281.027 131.165C278.939 131.275 274.308 131.934 272.094 136.283C271.419 137.601 270.917 140.097 271.545 139.893L271.498 139.862Z" fill="white"/>
<path d="M447.892 248.326C448.426 244.527 449.117 230.916 446.746 219.786C445.427 214.495 443.669 209.833 441.456 203.851C439.792 199.361 438.63 195.892 437.986 193.427C437.327 190.978 437.28 188.969 437.813 187.43C438.63 185.123 440.121 183.882 442.303 183.741C444.47 183.584 447.735 183.914 452.099 184.699C456.071 185.452 459.509 185.955 462.445 186.174C465.365 186.394 468.269 186.096 471.127 185.264C472.116 184.966 473.058 184.243 473.968 183.097C474.863 181.951 475.601 180.57 476.182 178.921C476.998 176.614 477.343 174.463 477.218 172.453C477.092 170.46 476.417 169.235 475.193 168.811C474.675 168.623 474.643 169.361 473.167 169.628C468.772 170.444 468.301 169.926 465.082 169.816C461.864 169.706 458.819 168.811 455.742 168.576C449.619 168.026 444.658 167.838 440.859 168.011C437.044 168.183 433.543 169.188 430.325 171.025C426.903 172.987 424.407 176.425 422.852 181.323C421.895 184.306 421.565 187.477 421.753 190.601C421.958 193.851 422.491 196.928 423.355 199.864C424.25 202.894 425.6 206.897 427.374 211.858C428.771 215.72 432.272 226.615 432.853 251.325C433.151 264.496 426.086 289.332 411.408 289.332C404.139 289.332 403.134 281.938 403.134 277.165C403.134 266.129 409.979 239.158 422.052 242.549C425.113 243.413 425.333 244.559 426.338 244.935C427.845 244.433 428.347 241.921 428.347 240.414C428.347 235.893 423.198 232.643 418.064 232.643C399.979 232.643 387.812 255.454 387.357 272.424C382.318 277.354 375.096 283.053 371.69 283.053C369.178 283.053 368.267 279.489 368.267 275.109C368.267 271.969 368.895 267.589 370.151 262.691C371.407 257.793 373.762 250.163 373.762 248.405C373.762 245.014 369.9 243.931 366.007 245.877C363.087 247.337 368.126 244.119 357.482 262.361C353.463 269.881 341.296 284.136 332.018 284.136C330.26 284.136 327.199 282.095 326.508 278.531C325.283 272.283 334.53 252.157 343.73 243.413C344.703 247.667 348.486 250.838 353.039 250.838C355.959 250.838 358.581 249.52 360.323 247.447C361.658 246.694 362.882 243.617 362.882 241.231C362.882 234.213 359.743 230.822 352.474 230.822C340.307 230.822 328.643 243.491 320.998 256.663C317.607 262.55 311.955 274.277 311.955 282.55C311.955 290.321 316.492 296.758 327.262 295.156C338.235 293.539 348.973 285.078 355.017 276.726C355.253 276.412 355.755 276.553 355.771 276.946C356.085 284.403 358.361 293.524 367.153 293.524C372.977 293.524 381.847 285.91 388.001 279.803C390.12 289.991 397.389 297.967 409.163 297.967C434.046 297.967 445.631 271.325 447.594 250.838C447.672 249.991 447.767 249.158 447.892 248.311V248.326Z" fill="white"/>
<path d="M85.9673 73.2983C84.0363 72.2307 84.0677 69.452 85.9673 68.3531C90.1432 65.9198 95.1669 60.8019 99.5155 55.7783C109.06 44.7576 110.725 28.6505 102.938 16.3268C100.505 12.4649 97.2078 8.90122 92.765 6.2324C89.5467 4.30143 86.0772 2.63735 82.1682 1.58552C78.2434 0.53369 74.1931 0.015625 69.9858 0.015625C64.3499 0.015625 58.6983 0.894766 52.9995 2.66875C47.3165 4.44273 41.9789 7.20574 37.018 10.9578C33.266 13.7208 30.6129 16.5937 29.0587 19.5765C27.5045 22.5593 26.6567 25.5421 26.484 28.5249C26.3113 31.5077 26.7038 34.3178 27.6458 36.9709C28.5877 39.624 29.6552 41.9475 30.8797 43.9256C32.0886 45.9193 33.3131 47.5206 34.5219 48.7294C34.6632 48.8864 35.6993 49.3888 35.9976 48.8864C35.2911 45.1658 35.6365 42.6382 37.1122 39.5299C52.7484 6.64058 81.2419 17.7397 83.3613 18.7288C91.6503 22.575 96.36 30.864 94.2093 42.5126C93.7383 45.0245 92.7179 47.4107 91.1794 49.4516C85.1353 57.4266 79.4366 63.1254 72.3563 65.9983C68.0391 67.7409 66.375 67.4269 65.857 67.3484C64.554 67.1443 62.6701 66.9873 62.466 66.9873C57.1912 66.9873 54.1927 71.7598 54.1927 76.391C54.1927 77.8981 55.6998 79.0284 57.7092 79.0284C58.5099 79.0284 85.1981 82.5292 85.669 108.37C86.1243 132.829 56.7673 182.422 26.798 182.422C15.7617 182.422 12.8103 170.71 12.8103 162.672C12.8103 158.151 14.1918 153.52 16.8292 150.003C17.7711 148.59 17.8653 146.236 16.3896 145.388C15.3064 144.76 11.8526 143.975 9.90596 144.414C1.20874 146.314 0.015625 154.901 0.015625 161.291C0.015625 179.093 11.2875 192.767 30.346 192.767C67.3484 192.767 103.487 144.995 103.487 104.351C103.487 91.0067 98.0555 80.0174 85.983 73.3297L85.9673 73.2983Z" fill="white"/>
<path d="M168.309 149.029C160.036 149.029 157.822 143.472 157.822 137.961C157.822 130.065 162.532 121.195 165.169 112.152C167.304 105.135 167.807 103 167.807 102.372C167.681 99.9855 165.044 99.1063 162.909 99.1063C155.138 99.1063 151.495 104.507 148.984 109.264C143.348 118.667 137.696 129.201 132.186 136.109C129.925 138.997 126.047 143.754 122.405 143.754C120.145 143.754 118.167 141.855 118.182 139.343C118.261 120.033 133.002 99.1377 133.065 98.9965C134.556 95.6212 128.81 94.7734 126.503 94.7734C117.476 94.7734 113.755 102.105 111.385 107.128C106.738 116.909 103.111 131.211 103.111 141.619C103.111 152.027 108.873 156.172 115.78 156.172C122.17 156.172 127.193 153.409 131.966 148.401C136.99 143.079 140.49 137.255 144.07 130.991C144.478 130.269 145.593 130.661 145.436 131.493C144.933 134.241 144.494 137.318 144.494 138.997C144.494 150.034 148.261 156.674 159.298 156.674C163.442 156.674 167.446 155.418 169.455 152.907C170.083 152.153 170.585 151.274 170.585 150.395C170.585 149.892 170.46 149.264 170.083 148.762C169.8 148.417 169.204 149.013 168.325 149.013L168.309 149.029Z" fill="white"/>
<path d="M362.097 156.173C368.486 156.173 373.51 153.41 378.282 148.402C383.306 143.08 386.807 137.256 390.386 130.992C390.794 130.27 391.909 130.663 391.752 131.495C391.25 134.242 390.81 137.319 390.81 138.999C390.81 147.492 393.055 153.363 399.099 155.64C400.371 156.44 401.894 156.943 403.73 157.037C406.038 157.162 408.33 156.77 410.575 156.032C411.517 155.765 412.396 155.42 413.197 154.996C416.933 153.269 420.528 150.632 423.841 147.665C430.12 154.682 440.152 158.151 451.879 158.151C462.287 158.151 475.553 155.153 481.346 147.853C484.439 143.96 484.266 142.358 484.266 140.349C484.266 138.214 482.916 135.545 481.409 135.545C481.409 135.545 471.77 150.145 456.526 150.412C446.243 150.6 441 147.947 436.494 138.669C447.656 131.652 465.678 117.004 465.678 102.828C465.678 94.6806 458.41 90.9128 451.377 90.9128C432.193 90.9128 416.886 108.967 416.886 127.664C416.886 133.017 417.922 137.649 419.806 141.589C410.654 151.04 406.588 145.749 406.368 145.671C404.735 143.583 404.154 140.773 404.154 137.978C404.154 130.082 404.767 126.942 407.404 117.915C409.539 110.898 414.139 103.017 414.139 102.389C414.013 100.003 411.376 99.1234 409.241 99.1234C401.47 99.1234 397.828 104.508 395.316 109.281C389.68 118.684 384.028 129.218 378.502 136.126C376.242 139.014 372.364 143.771 368.722 143.771C366.461 143.771 364.483 141.872 364.499 139.36C364.577 120.05 379.319 99.1548 379.381 99.0135C380.873 95.6382 375.127 94.7905 372.819 94.7905C363.792 94.7905 360.072 102.122 357.701 107.146C353.054 116.926 349.428 131.228 349.428 141.636C349.428 152.045 355.189 156.189 362.097 156.189V156.173ZM453.135 97.789C455.254 98.0088 456.526 100.411 456.526 101.918C456.526 109.516 443.449 124.823 437.185 130.411C435.756 131.683 433.244 130.678 432.821 128.826C430.403 118.355 437.138 96.0778 453.135 97.789Z" fill="white"/>
<path d="M695.465 272.015C692.686 276.458 687.019 285.14 673.392 286.898C665.559 287.903 665.857 280.273 665.857 277.651C665.857 272.392 667.552 258.279 681.148 236.724C683.157 233.537 678.636 232.203 675.873 232.203C671.352 232.203 666.344 234.589 663.329 238.467C657.191 246.112 649.295 254.888 639.389 254.888C635.746 254.888 630.707 252.015 628.211 251.889C618.336 251.403 619.828 258.467 619.812 259.472C619.718 262.674 622.245 260.539 625.573 261.01C627.818 261.324 628.384 261.811 628.886 262.313C631.398 264.448 631.618 266.552 631.618 269.315C631.618 276.96 626.092 284.449 618.823 285.877C615.667 286.49 610.22 286.16 610.22 281.388C610.22 267.839 617.379 243.129 628.493 236.222C629.734 235.452 629.749 234.84 629.749 234.589C629.749 232.328 625.982 230.193 622.858 230.193C615.715 230.193 610.691 234.715 607.677 240.476C601.664 251.764 598.775 271.953 598.775 279.739C598.775 292.157 604.537 295.156 614.569 295.156C619.215 295.156 624.789 294.119 630.158 291.278C641.539 285.265 645.417 276.521 645.417 267.117C645.417 264.794 644.726 262.156 643.643 260.32C643.439 259.974 643.627 259.519 644.02 259.409C650.488 257.447 654.161 254.213 657.285 251.952C657.788 251.591 658.447 252.078 658.259 252.659C657.003 256.473 655.637 261.277 655.009 266.301C653.69 276.866 653.957 277.934 654.004 281.576C654.146 295.831 666.516 296.616 668.275 296.616C678.683 296.616 691.462 291.466 697.255 284.182C699.72 281.089 700.034 279.692 700.034 277.683C700.034 271.262 695.638 271.748 695.497 271.984L695.465 272.015Z" fill="white"/>
<path d="M308.388 266.003C302.25 271.356 295.593 276.27 289.675 280.477C289.628 280.43 289.596 280.367 289.549 280.32C289.534 280.305 289.502 280.273 289.487 280.258C287.932 278.782 288.482 276.129 290.428 275.234C303.019 269.472 310.853 258.609 310.853 244.605C310.853 233.663 302.234 224.385 287.995 224.385C267.288 224.385 259.502 234.495 259.502 243.114C259.502 249.252 263.473 254.543 269.439 254.543C270.632 254.543 271.966 254.339 273.238 253.883C274.886 253.287 266.221 242.706 275.687 237.494C284.117 232.847 296.959 234.087 297.132 246.379C297.383 262.832 282.375 272.424 271.605 272.424C267.602 272.424 265.106 275.14 264.588 278.782C264.352 280.462 265.687 281.67 267.304 282.204C276.237 285.171 277.084 287.573 277.1 287.636C247.633 305.062 203.456 342.237 201.698 367.135C198.888 406.917 282.626 422.804 293.631 310.918C294.165 305.423 294.4 290.901 292.783 287.024C296.206 284.575 301.386 280.98 306.661 277.024C309.77 274.637 312.862 270.069 309.55 266.113C309.251 265.767 308.733 265.705 308.388 266.003ZM282.83 305.407C281.119 331.687 254.87 380.071 233.426 384.781C214.446 388.941 214.022 374.388 214.022 368.627C214.022 345.549 258.34 308.029 281.292 293.978C281.982 295.627 283.238 299.175 282.83 305.407Z" fill="white"/>
<path d="M596.028 177.273C596.028 171.637 595.243 158.654 577.11 163.599C568.272 166.001 559.402 175.609 555.399 182.265C540.469 206.975 532.196 240.335 530.186 261.027C528.538 263.052 526.073 266.317 523.247 269.614C514.88 279.394 509.15 282.832 506.811 282.832C504.299 282.832 503.388 279.269 503.388 274.889C503.388 271.749 504.016 267.369 505.272 262.471C506.528 257.573 508.883 249.943 508.883 248.185C508.883 244.794 505.021 243.711 501.128 245.657C498.208 247.117 503.247 243.899 492.603 262.141C488.584 269.661 476.417 283.916 467.139 283.916C465.381 283.916 462.32 281.875 461.629 278.311C460.405 272.016 469.808 251.607 479.071 242.989C479.981 247.321 483.812 250.571 488.411 250.571C491.567 250.571 494.346 249.033 496.088 246.678C496.653 246.034 497.156 245.045 497.501 243.946C497.548 243.821 497.58 243.695 497.611 243.569C497.658 243.412 497.705 243.255 497.737 243.083C497.752 242.989 497.768 242.91 497.799 242.816C497.925 242.204 498.004 241.591 498.004 241.026C498.004 234.009 494.864 230.618 487.595 230.618C475.428 230.618 463.764 243.287 456.119 256.458C452.728 262.345 447.076 274.072 447.076 282.346C447.076 290.117 451.613 296.553 462.383 294.952C473.356 293.335 484.094 284.873 490.138 276.521C490.374 276.208 490.876 276.349 490.892 276.741C491.206 284.198 493.482 293.319 502.274 293.319C507.172 293.319 512.619 290.729 525.194 278.358C527.298 276.082 529.182 273.915 530.689 272.189C532.447 285.862 537.832 294.889 551.882 294.889C573.829 294.889 590.831 275.737 592.276 255.752C592.543 253.727 592.684 250.54 591.695 246.882C591.114 244.747 590.313 243.02 589.56 241.701C587.001 237.353 582.809 234.574 577.33 234.574C571.851 234.574 564.033 238.718 564.033 243.224C564.033 244.606 564.96 247.698 567.566 246.898C569.324 245.265 571.804 244.213 573.782 244.998C575.76 245.783 577.801 247.573 578.068 253.256C578.68 266.035 566.263 290.305 551.961 290.305C544.315 290.305 543.326 279.41 543.326 271.765C543.326 266.113 544.378 264.355 545.414 259.959C560.972 241.403 595.996 201.386 595.996 177.304L596.028 177.273ZM571.082 183.003C579.434 168.921 591.836 176.629 587.001 186.912C580.376 200.978 556.027 231.544 548.381 243.962C554.645 218.247 560.203 201.355 571.082 183.003Z" fill="white"/>
</g>
<defs>
<clipPath id="clip0_7972_615">
<rect width="700" height="396.948" fill="white"/>
</clipPath>
</defs>
</svg>
