<svg xmlns="http://www.w3.org/2000/svg" width="66" height="102" viewBox="0 0 66 102" fill="none">
  <path d="M32.7626 101.949C40.3116 101.949 46.4313 95.8294 46.4313 88.2805C46.4313 80.7315 40.3116 74.6118 32.7626 74.6118C25.2137 74.6118 19.094 80.7315 19.094 88.2805C19.094 95.8294 25.2137 101.949 32.7626 101.949Z" fill="#6396D1"/>
  <path d="M63.7152 26.0222C62.9133 24.8171 43.2466 4.95792 43.2466 4.95792C42.7838 4.38973 42.266 3.86736 41.7162 3.38623L41.652 3.32208H41.6429C40.8456 2.63017 39.9704 2.02074 39.0264 1.53045C37.1523 0.554444 35.0216 0 32.7672 0C29.0144 0 25.619 1.52587 23.1629 3.99108L3.4962 24.1618C3.42289 24.2352 3.34957 24.3131 3.27626 24.391L3.18003 24.4918C1.2097 26.595 0 29.4222 0 32.5289C0 39.0264 5.26493 44.2914 11.7625 44.2914C14.4797 44.2914 16.9816 43.3658 18.9748 41.817L19.0939 53.836C19.0939 61.3875 25.2157 67.5047 32.7626 67.5047C40.3094 67.5047 46.4312 61.3829 46.4312 53.836C46.4312 53.2449 46.3167 41.5008 46.3167 41.5008C48.3649 43.2375 51.018 44.2868 53.9139 44.2868C60.4115 44.2868 65.6764 39.0219 65.6764 32.5243C65.6764 30.1187 64.9524 27.8826 63.7106 26.0176L63.7152 26.0222Z" fill="#6396D1"/>
</svg>
