<svg width="179" height="55" viewBox="0 0 179 55" fill="none" xmlns="http://www.w3.org/2000/svg">
<path d="M21.2169 31.8753C21.2169 32.2653 20.7269 32.6753 20.3369 32.6453C20.2269 32.6453 20.1069 32.5053 20.1169 32.3853C20.1469 32.0053 20.5969 31.6353 20.9769 31.6453C21.0869 31.6453 21.2169 31.7653 21.2169 31.8753ZM0.186883 46.4553C0.546883 46.4553 2.49688 43.3653 2.35688 43.0153C2.31688 42.9153 2.14688 42.9953 2.04688 42.9453C1.75688 42.8253 -0.353117 46.4553 0.176883 46.4453L0.186883 46.4553ZM23.3469 30.5953C24.0369 31.4353 25.0969 29.0553 25.8769 29.4253C26.3569 29.6553 25.6869 30.6653 26.2669 30.9553C26.7069 31.1753 28.3469 28.2453 27.6269 27.2953C27.1269 26.6353 22.7069 29.8253 23.3469 30.5953ZM67.3769 13.2753C67.6669 14.3653 69.1669 12.3553 69.9469 12.5253C69.9469 12.5253 69.9469 12.5153 69.9569 12.5053C68.5769 11.4353 66.9969 11.8653 67.3769 13.2753ZM28.4769 26.7153C29.4169 27.9053 32.7669 26.0153 32.3369 24.9853C31.5969 23.1853 28.0369 26.1553 28.4769 26.7153ZM35.5469 19.5953C35.6069 19.2353 35.3069 18.7453 34.9569 18.6953C34.6869 18.6553 34.3569 18.9553 34.3469 19.2253C34.3469 19.5753 34.7669 19.9253 35.1169 19.9453C35.3069 19.9453 35.5269 19.7853 35.5469 19.5953ZM48.7669 17.6253C48.4069 15.7353 49.1969 17.0753 48.9469 15.3553C48.8769 14.8753 50.1269 14.5753 49.8269 14.1953C49.5269 13.8153 43.9669 16.5553 41.1769 18.1553C40.5769 18.4953 39.5769 18.7053 39.5169 19.6353C39.4969 19.8753 38.8169 20.1453 38.3969 20.2753C37.8869 20.4353 37.2869 20.3453 36.8269 20.5753C35.6269 21.1753 34.4369 21.8253 33.3369 22.5853C32.9969 22.8153 32.2169 23.5053 32.6269 24.2653C33.2269 25.3753 36.0269 23.1753 37.5569 21.7353C37.7869 21.5253 38.1369 21.4153 38.4469 21.3153C39.2669 21.0553 40.9369 21.5853 41.1469 20.5053C41.1469 20.5053 41.3069 21.1253 41.7569 21.0353C41.6869 21.3053 41.7469 21.6053 42.0169 21.9153C42.4369 22.3953 43.1269 21.3053 43.6469 20.9453C44.1269 20.6153 45.9169 21.5853 45.2469 20.4253C44.7169 19.5053 42.9869 19.7353 42.1669 20.4253C42.1869 20.1253 42.1169 19.8153 42.1969 19.7453C42.7869 19.1953 43.9069 19.5953 44.1469 19.2053C44.7769 18.1853 45.5569 18.7453 46.2069 18.6753C47.0469 18.5853 46.6369 16.5353 47.6169 17.1953C48.1069 17.5253 47.7969 18.6953 48.3969 18.8853C48.7769 19.0053 48.9669 18.5153 49.2169 18.3953C49.4269 18.2953 49.7569 18.3553 49.8869 18.1553C49.9369 18.0753 49.9269 17.9453 49.8669 17.8753C49.6369 17.5953 48.8369 18.0053 48.7669 17.6153V17.6253ZM46.5869 19.1653C46.5069 19.1953 46.4269 19.4853 46.4769 19.5353C46.5869 19.6353 46.7769 19.7953 46.9169 19.7153C47.0069 19.6653 47.2569 19.4553 47.0569 19.1753C46.9769 19.0753 46.7369 19.1153 46.5869 19.1753V19.1653ZM34.9969 25.5953C34.6769 25.5753 34.2969 25.9153 34.2869 26.2353C34.2869 26.3153 34.3669 26.4053 34.4469 26.4153C34.7669 26.4353 35.1569 26.1253 35.1869 25.8053C35.1869 25.7153 35.0969 25.6053 35.0069 25.5953H34.9969ZM128.497 44.6053C128.437 44.1453 127.657 44.3953 127.247 44.6253V44.6453C127.637 44.9053 128.557 45.0153 128.507 44.6053H128.497ZM127.687 46.1053C127.687 46.5953 129.237 46.0753 129.547 45.9853C129.767 45.9153 127.687 45.3853 127.687 46.1053ZM128.857 46.5053C128.857 46.5053 128.857 46.5853 128.877 46.6053C128.957 46.6553 129.097 46.6153 129.147 46.5353C129.167 46.5053 129.147 46.4553 129.127 46.4353C129.047 46.3853 128.907 46.4253 128.857 46.5053ZM126.557 46.0453C126.427 46.3653 126.977 46.2453 127.157 46.1653C127.177 46.1653 127.237 46.0753 127.187 46.0253C127.067 45.8853 126.657 45.7853 126.557 46.0453ZM119.847 44.6253C119.847 44.6253 119.817 44.7553 119.847 44.7853C119.937 44.8553 120.117 44.8253 120.197 44.7353C120.217 44.7153 120.207 44.6753 120.197 44.6553C120.117 44.5753 119.937 44.5453 119.847 44.6253ZM132.087 45.8153C131.677 45.2353 130.727 45.8553 130.087 45.8953C129.867 45.9053 130.077 46.1553 130.437 46.1453C130.807 46.1353 131.337 45.9853 131.557 46.5753C131.627 46.7653 132.297 46.7353 132.237 46.5453C132.197 46.4053 131.897 46.4953 131.847 46.3653C131.767 46.1553 132.187 45.9753 132.077 45.8153H132.087ZM122.807 44.7153C122.807 44.8153 123.007 44.8553 123.087 44.8053C123.127 44.7853 123.137 44.7153 123.107 44.6853C123.037 44.6153 122.817 44.6253 122.807 44.7153ZM126.837 44.6653C126.637 44.4853 125.717 44.2753 125.917 44.8453C126.087 45.3453 126.377 44.9753 126.837 44.6853V44.6653ZM124.507 44.6453C124.507 44.6453 124.467 44.7053 124.477 44.7353C124.527 44.8053 124.647 44.7753 124.737 44.7753C124.817 44.7753 124.937 44.7953 124.977 44.7253C124.997 44.6953 124.977 44.6453 124.957 44.6253C124.837 44.5353 124.617 44.5553 124.497 44.6453H124.507ZM140.027 48.9453C139.967 48.9653 139.897 49.0353 139.897 49.1053C139.897 49.1353 139.927 49.1753 139.967 49.1853C140.087 49.2053 140.247 49.1453 140.297 49.0353C140.307 49.0053 140.297 48.9653 140.277 48.9453C140.217 48.8953 140.107 48.9253 140.027 48.9453ZM137.387 42.3653C137.387 42.3653 137.417 42.2753 137.387 42.2553C137.297 42.1653 137.097 42.1653 136.997 42.2553C136.957 42.2853 136.947 42.3653 136.977 42.3953C137.067 42.4953 137.297 42.4753 137.387 42.3753V42.3653ZM136.247 42.4153C136.247 42.4153 136.257 42.3053 136.227 42.2753C135.977 42.0853 135.497 42.1353 135.297 42.3753C135.257 42.4253 135.257 42.5353 135.307 42.5753C135.557 42.7753 136.067 42.6753 136.247 42.4153ZM132.537 45.8853C132.537 45.8853 132.497 46.0053 132.537 46.0453C132.587 46.0853 132.697 46.0953 132.747 46.0253C132.787 45.9653 132.757 45.8753 132.717 45.8453C132.667 45.8153 132.587 45.8453 132.537 45.8853ZM158.017 52.1253C158.017 51.9353 157.687 51.8953 157.487 51.8853C157.387 51.8853 157.097 51.8153 157.107 51.9953C157.117 52.3553 158.037 52.4953 158.017 52.1153V52.1253ZM132.257 43.8553C132.257 43.8553 132.257 43.7353 132.217 43.7153C132.077 43.6353 131.827 43.6853 131.737 43.8153C131.717 43.8453 131.737 43.9053 131.757 43.9253C131.897 44.0153 132.157 43.9953 132.247 43.8553H132.257ZM138.867 41.4753C138.867 41.4753 138.837 41.5853 138.867 41.6253C139.207 42.0153 140.787 42.1753 140.477 41.4453C140.247 40.8853 139.217 41.1153 138.857 41.4753H138.867ZM154.537 40.6453C154.467 40.3453 153.367 40.2553 153.537 40.7953C153.667 41.2153 154.607 40.9453 154.537 40.6453ZM139.267 42.5353C139.417 43.1253 140.357 42.6253 140.837 42.6053C140.997 42.6053 141.667 41.9053 141.587 41.7153C141.347 41.1553 141.127 42.0253 140.897 42.2153C140.487 42.5753 139.107 41.8953 139.257 42.5353H139.267ZM138.827 43.0853C138.827 43.0853 138.847 43.0153 138.827 42.9953C138.767 42.9053 138.607 42.8553 138.517 42.9153C138.477 42.9453 138.467 43.0353 138.507 43.0753C138.577 43.1553 138.747 43.1653 138.827 43.0953V43.0853ZM138.157 47.9353C138.157 48.3053 139.137 48.3053 139.477 48.0053V47.9853C139.137 47.7353 138.157 47.3353 138.157 47.9353ZM138.127 48.9953C138.127 48.9953 138.107 49.0853 138.127 49.1053C138.317 49.2953 138.727 49.3153 138.927 49.1353C138.967 49.0953 138.967 49.0153 138.927 48.9753C138.737 48.7853 138.307 48.8053 138.127 48.9953ZM142.667 48.8153C142.667 48.8153 142.017 49.0653 142.057 49.3553C142.107 49.6953 142.577 49.6353 142.767 49.3953C142.887 49.2353 142.847 48.5253 142.667 48.8153ZM133.877 46.4353C133.737 46.3353 132.957 46.2653 132.947 46.5853C132.927 47.0753 134.117 46.7753 134.077 46.5953C134.057 46.5053 133.887 46.4453 133.877 46.4353ZM170.967 54.5353C170.477 54.4753 169.987 54.4753 169.507 54.4153C168.187 54.2553 166.877 54.0753 165.557 53.9053C163.977 53.7053 162.397 53.5053 160.827 53.3153C160.507 53.2753 157.147 53.0053 155.897 52.6153C155.837 52.5953 155.687 52.5553 155.737 52.4653C156.167 51.7453 157.387 52.7653 158.387 52.6853C158.727 52.6653 158.207 52.4953 158.307 52.3553C158.447 52.1653 158.597 52.0453 158.747 52.2153C159.127 52.6753 159.147 53.3353 159.957 52.7653C160.147 52.6253 160.367 52.3753 160.267 52.1653C159.847 51.2953 158.807 51.8453 157.837 51.5853C157.657 51.5353 157.037 51.5553 156.867 51.5153C156.507 51.4253 156.127 51.3453 155.757 51.3353C154.657 51.2953 153.587 51.0453 152.517 50.8253C151.347 50.5853 150.147 50.4953 148.957 50.3153C148.287 50.2153 147.087 49.9053 147.127 49.8553C147.207 49.7753 147.287 49.6853 147.347 49.5953C147.347 49.5953 147.237 49.4653 147.227 49.4753C147.117 49.5453 147.007 49.6153 146.937 49.7153C146.907 49.7653 147.037 49.8953 146.987 49.9653C146.737 50.2753 146.197 49.9853 145.807 49.9653C144.927 49.9053 143.787 50.3653 143.167 49.7353C143.137 49.7053 143.127 49.6253 143.167 49.5853C143.227 49.5053 143.417 49.6153 143.507 49.4953C143.637 49.3053 143.277 48.9453 143.667 48.8153C143.897 48.7453 144.337 48.9553 144.457 48.6553C144.637 48.1853 143.867 48.4253 143.617 48.4553C143.247 48.5053 142.727 48.4253 142.547 48.6753C142.087 49.3053 141.317 47.9653 140.567 48.3653C140.417 48.4453 140.147 48.4753 139.987 48.3753C139.857 48.2953 140.317 47.8053 140.577 47.8253C141.507 47.9053 142.427 47.7653 143.347 47.7053C143.467 47.7053 143.767 47.5753 143.667 47.3953C143.197 46.5753 141.557 47.8353 140.847 47.2153C140.477 46.8953 141.507 46.8653 141.387 46.5753C141.237 46.2053 140.417 46.1953 140.117 46.5553C139.977 46.7253 140.257 46.9153 140.207 47.0353C140.187 47.0753 140.127 47.1053 140.087 47.0953C139.627 47.0253 139.177 46.9453 138.727 46.8853C138.627 46.8753 138.517 46.9253 138.417 46.9453C138.217 46.9953 138.017 47.0953 137.817 47.0853C137.657 47.0853 137.527 46.8053 137.237 46.8253C137.037 46.8353 136.767 47.3153 136.467 46.7553C136.417 46.6653 136.167 46.6853 136.007 46.6653C135.477 46.5953 134.567 46.1853 134.277 46.2153C134.147 46.2253 133.497 46.2753 133.347 46.1153C133.197 45.9653 133.317 45.7853 133.577 45.7253C133.867 45.6653 134.257 45.8153 134.437 45.4153C134.447 45.3853 134.597 45.4253 134.677 45.4253C134.797 45.4253 134.927 45.4653 135.027 45.4253C135.477 45.2553 135.177 45.4753 135.657 45.7953C135.977 46.0153 136.457 45.7953 136.647 45.7353C136.987 45.6153 137.087 45.3453 137.267 45.3253C137.777 45.2453 138.297 45.2253 138.807 45.1953C139.227 45.1753 139.647 45.1653 140.057 45.1653C140.357 45.1653 140.657 45.2053 140.957 45.2053C141.227 45.2053 141.807 45.3353 141.757 45.0453C141.667 44.4253 140.507 44.7253 139.917 44.8153C138.887 44.9653 137.907 44.6553 136.897 44.6953C136.177 44.7253 135.447 44.7253 134.727 44.7353C133.557 44.7553 132.397 44.7853 131.227 44.7953C130.577 44.7953 129.927 44.7953 129.277 44.7853C129.167 44.7853 128.947 44.7853 128.937 44.5853C128.927 44.3453 129.927 44.2353 130.487 44.2153C132.197 44.1553 134.047 44.3853 135.747 44.3053C136.287 44.2853 136.707 44.3253 137.247 44.2753C137.427 44.2553 137.917 44.3253 138.087 44.3453C138.857 44.4453 138.967 44.4753 138.967 44.2653C138.967 43.7953 134.437 44.0953 134.227 43.5053C134.117 43.2053 135.147 43.2453 136.267 43.2253C137.387 43.2053 138.307 43.4953 139.427 43.4453C140.557 43.3953 142.887 44.2553 142.817 43.1053C142.787 42.6853 141.887 43.3153 141.557 43.0553C141.527 43.0353 141.517 42.9853 141.527 42.9553C141.607 42.7853 141.927 42.8753 142.067 42.7153C142.177 42.5853 142.117 42.4053 142.307 42.3353C142.537 42.2453 142.707 42.3753 142.897 42.5353C142.977 42.5953 143.017 42.6953 143.097 42.7553C143.317 42.9253 143.587 43.4053 143.887 43.2053C144.307 42.9253 144.547 42.6553 144.437 42.2053C144.337 41.7953 143.197 42.7353 143.157 42.3053C143.157 42.3053 142.157 42.1453 142.227 42.0253C142.307 41.8953 142.697 41.9253 142.797 41.7753C143.027 41.4453 142.037 41.6853 142.147 41.3653C142.277 40.9853 142.957 40.9453 143.257 41.2053C143.517 41.4353 143.377 41.8153 143.717 41.7353C143.837 41.7053 143.817 41.3553 144.067 41.2053C144.527 40.9453 145.247 41.1553 145.897 41.1253C146.057 41.1253 146.257 41.1453 146.377 41.0753C146.697 40.8853 146.957 40.8953 147.287 41.0653C147.647 41.2453 148.147 41.1053 148.157 40.7353C148.167 40.4953 147.827 40.3053 147.857 40.1353C147.927 39.7953 148.297 39.7853 148.557 39.8253C149.297 39.9353 150.037 39.6753 150.797 39.9053C151.147 40.0053 151.567 39.8353 151.967 39.8153C152.307 39.7953 152.757 39.5853 152.997 39.8353C153.617 40.4753 152.757 40.9153 151.977 40.7753C151.517 40.6953 151.057 40.5953 150.587 40.5753C150.157 40.5653 149.277 40.2953 149.277 40.7453C149.277 41.5053 150.727 41.1953 151.507 41.1653C152.017 41.1453 152.527 41.2453 153.037 41.2353C153.387 41.2353 153.727 41.4853 154.087 41.5353C154.567 41.6053 154.467 41.3953 154.737 40.8853C154.877 40.6153 155.227 40.4953 155.467 40.2953C155.727 40.0753 155.897 40.0653 156.077 40.3853C156.277 40.7353 156.467 40.7053 156.747 40.4953C156.877 40.3953 157.077 40.3353 157.237 40.3553C157.317 40.3553 157.387 40.3753 157.467 40.3853C153.607 36.9153 146.457 30.0853 128.067 21.5753C101.907 9.46533 81.2769 12.5253 80.3269 12.0853C79.8269 11.8553 79.8669 9.97533 78.9569 10.1753C77.5769 10.4753 78.0769 12.0853 76.8169 12.0153C74.9369 11.9153 73.4869 13.0053 71.6569 13.2353C71.0369 13.3153 70.5269 12.3053 70.1069 12.6153V12.6253C69.8769 12.6753 69.8369 12.6253 69.9169 12.5153C69.9469 12.5153 69.9869 12.5353 70.0169 12.5553C69.9869 12.5353 69.9669 12.5153 69.9369 12.4953C70.2369 12.0953 71.7569 10.9853 71.2669 10.4053C70.5569 9.56533 69.1569 10.6653 68.4569 11.1553C67.4569 11.8553 66.6269 11.2153 65.6269 11.3553C64.3869 11.5253 65.8169 13.6253 64.5269 14.1653C63.8769 14.4353 62.6269 15.3553 62.4069 14.5953C62.3169 14.2853 63.1469 14.3553 63.2469 13.9653C63.3769 13.4353 63.0469 12.7253 62.5169 12.4553C61.9969 12.1953 61.3769 12.9853 60.8969 12.7453C60.3669 12.4853 60.6169 11.4953 60.1269 11.2953C60.0169 11.2553 59.8669 11.3053 59.7969 11.4053C59.2769 12.1653 59.8269 13.2653 59.9969 14.1653C60.1769 15.0953 59.9069 15.4953 58.9969 15.7453C57.6269 16.1253 56.3669 16.9653 55.3769 17.0053C54.5969 17.0353 54.0969 16.9153 53.7369 16.5453C53.5169 16.3253 53.9069 15.4853 53.3869 15.2553C52.5469 14.8853 51.6469 17.4453 50.7969 16.5753C49.8169 15.5653 50.4369 15.3153 50.2169 14.0353C50.0669 13.2053 52.1969 13.3653 51.8969 12.5653C51.6369 11.8453 46.7969 15.4653 46.2769 14.1953C46.1169 13.8153 46.8069 13.8653 46.9669 13.7353C47.0869 13.6353 47.5669 13.5553 47.4169 13.2353C47.1669 12.7153 46.0569 13.9853 45.7169 13.3253C45.0669 12.0653 50.5769 10.5253 50.1969 9.72533C49.9669 9.23533 46.0769 10.8053 45.0569 12.5453C44.3369 13.7753 44.2769 14.4053 43.1469 14.8953C42.4869 15.1753 41.6869 15.2953 41.5469 16.4453C41.4469 17.3353 40.5469 16.7953 39.4669 16.6953C38.1569 16.5753 36.3469 19.4153 35.9269 18.7253C35.4269 17.8953 37.4469 17.6453 37.1669 17.0853C36.7869 16.3353 28.5669 21.1753 29.1869 22.0253C29.5869 22.5753 33.3669 18.9453 33.8269 19.8453C34.1669 20.5053 32.5669 20.6953 32.0969 21.2453C31.6569 21.7653 31.8069 22.9253 31.0569 23.1653C30.5169 23.3353 30.2869 22.4353 29.8269 22.5353C28.8969 22.7453 28.0069 23.4453 27.8569 24.6953C27.8369 24.8353 27.6069 24.9453 27.4669 25.0653C26.9069 25.5653 25.6869 26.0653 24.5069 26.3753C24.2769 26.4353 24.0669 26.7453 23.9469 26.9853C23.6469 27.6253 23.6669 27.6153 22.6469 27.6853C22.4369 27.6953 22.2169 27.8553 22.0369 27.9853C17.6469 31.0453 13.6769 34.5553 10.0569 38.5153C7.01688 41.8353 4.36688 45.4253 1.88688 49.1553C1.34688 49.9653 0.296883 51.8653 0.0968833 51.7853C-0.353117 51.5953 0.806883 49.5353 2.69688 46.6353C3.72688 45.0553 5.74688 42.8453 5.84688 41.9953C5.84688 41.9653 5.79688 41.9153 5.75688 41.8953C5.70688 41.8753 5.61688 41.8653 5.59688 41.8953C4.41688 43.3453 2.22688 46.3253 1.78688 46.0553C1.13688 45.6553 4.69688 42.3253 5.06688 41.0953C5.09688 41.0153 4.98688 40.8953 4.90688 40.8853C3.92688 40.7553 3.38688 41.7153 2.54688 42.6553C2.47688 42.7353 2.29688 42.6753 2.23688 42.5853C1.92688 42.1053 3.28688 40.3253 3.60688 39.8853C6.56688 35.7853 9.07688 33.1253 12.8369 29.7453C17.7469 25.3353 23.0969 21.5353 28.6469 17.9853C33.2569 15.0353 37.9569 12.2453 42.8869 9.89533C48.9969 6.99533 76.7769 -3.67467 103.947 1.30533C148.637 9.50533 165.657 35.0953 165.787 35.1953C165.837 35.2353 165.867 35.2753 165.917 35.3053C165.697 33.6453 165.707 30.6953 165.027 21.8753C163.827 6.32533 168.357 5.53533 170.977 11.9553C174.847 21.4553 177.847 42.4053 177.927 43.5653C178.197 47.5353 180.827 55.7453 170.967 54.4653V54.5353ZM10.8969 36.4553C10.9869 36.3053 10.6569 36.1153 10.4869 36.1353C9.92688 36.2053 7.70688 39.1553 8.00688 39.5853C8.26688 39.9353 10.1069 37.7153 10.8869 36.4553H10.8969ZM19.4869 28.3153C15.4469 31.4853 12.0669 35.0753 12.8169 34.6953C13.7169 34.2453 16.4969 31.4953 19.7669 28.8153C23.0769 26.1053 26.8669 23.4753 28.0169 22.5553C28.4169 22.2353 23.6269 25.0653 19.4869 28.3153ZM36.2469 14.9453C35.8469 14.4153 33.3469 16.6253 32.0769 17.4953C31.2969 18.0353 30.7769 18.3553 29.9069 18.7653C29.6869 18.8653 29.4069 19.4253 29.2069 19.5253C28.1369 20.0653 27.1569 20.7753 25.9869 21.1753C25.5469 21.3253 25.1169 21.8653 24.9169 22.3253C24.6169 23.0553 24.2069 23.3953 23.4269 23.3353C23.2269 23.3153 22.9769 23.4153 22.8269 23.5453C21.9169 24.3553 21.0669 25.2453 20.1269 26.0253C18.1569 27.6553 16.1369 29.2153 14.1769 30.8453C13.5369 31.3753 12.7569 32.0853 12.0869 32.6453C11.1469 33.4253 5.35688 39.1353 5.89688 39.7153C6.19688 40.0453 6.78688 39.3253 7.44688 38.5153C7.86688 38.0053 8.26688 37.4753 8.63688 36.9253C8.71688 36.8153 8.75688 36.6753 8.84688 36.5653C9.27688 36.0553 9.88688 35.7253 10.3769 35.2653C11.7469 33.9553 13.0369 32.5553 14.4769 31.3253C18.9869 27.4853 23.7269 23.9353 28.6369 20.6053C29.1169 20.2853 29.4069 19.7053 29.8969 19.3753C30.5969 18.8853 31.4569 18.6953 32.2069 18.2853C33.0069 17.8453 33.8169 17.3853 34.5169 16.8153C35.0869 16.3453 36.6569 15.4553 36.2669 14.9353L36.2469 14.9453ZM38.4969 14.1253C38.5269 14.0253 38.4369 13.8753 38.3369 13.8453C38.0169 13.7553 37.5569 13.9953 37.4569 14.3153C37.4269 14.4253 37.5069 14.5753 37.6169 14.6053C37.9369 14.6953 38.4069 14.4453 38.4969 14.1253ZM43.1969 13.6153C42.9469 13.1953 38.5069 15.5153 38.8269 16.2353C39.0269 16.6953 43.5769 14.2653 43.1969 13.6153ZM50.1469 12.0953C50.1469 12.0953 50.0569 11.9853 49.9369 11.9853C49.5169 11.9853 48.8769 12.0853 48.6869 12.5153C48.6569 12.5753 48.6869 12.6853 48.7569 12.7153C49.1869 12.9153 49.6469 12.4053 50.0869 12.2353C50.1269 12.2253 50.1669 12.1153 50.1469 12.0953ZM54.8569 11.5253C54.7869 11.0753 54.6569 11.0753 54.3969 11.0653C54.2769 11.0653 53.5169 11.4253 53.5569 11.6353C53.6069 11.9053 54.0069 11.9953 54.2569 12.0453C54.3769 12.0753 54.9269 11.9253 54.8669 11.5253H54.8569ZM54.7369 15.5953C55.0669 16.1353 56.3269 16.0853 56.5269 15.4153C56.9269 14.0453 54.0669 14.5153 54.7369 15.5953ZM58.3969 14.3553C58.4269 14.2753 58.3669 14.1553 58.2869 14.1253C58.0269 14.0353 57.6369 14.2153 57.5369 14.4653C57.5169 14.5253 57.5469 14.6153 57.6069 14.6353C57.8569 14.7453 58.2869 14.6153 58.3969 14.3553ZM58.4769 12.1553C58.4069 12.0753 58.2369 12.0753 58.1769 12.1153C58.0969 12.1653 57.9869 12.3153 58.0369 12.4053C58.1069 12.5353 58.3469 12.5653 58.4569 12.4853C58.5469 12.4153 58.5469 12.2453 58.4769 12.1553ZM58.5069 7.77533C58.2869 7.62533 57.8669 7.70533 57.7269 7.92533C57.6769 8.00533 57.7069 8.15533 57.7869 8.20533C58.0069 8.34533 58.4269 8.24533 58.5669 8.02533C58.6169 7.95533 58.5869 7.81533 58.5069 7.77533ZM60.3669 8.41533C60.0269 8.26533 59.1869 8.59533 59.2569 9.19533C59.3669 10.2153 61.1769 8.77533 60.3669 8.41533ZM65.2169 5.98533C65.0069 5.76533 64.5169 5.76533 64.3069 5.98533C64.2269 6.06533 64.2169 6.24533 64.3069 6.33533C64.5169 6.55533 65.0069 6.55533 65.2269 6.34533C65.3069 6.26533 65.3169 6.07533 65.2269 5.99533L65.2169 5.98533ZM74.0569 10.3653C73.8469 10.2553 73.6369 10.0553 73.4669 10.1753C73.3769 10.2353 73.3669 10.4453 73.4569 10.5153C73.6069 10.6453 73.8469 10.4353 74.0569 10.3653ZM74.7469 10.4153C74.6769 10.3453 74.4869 10.4153 74.3269 10.4253C74.4069 10.5353 74.3869 10.7453 74.4869 10.8353C74.5769 10.9253 74.8069 11.0553 74.9169 10.9553C75.0469 10.8153 74.8669 10.5253 74.7469 10.4153ZM86.1269 9.53533C86.0769 9.43533 85.9069 9.40533 85.8069 9.46533C85.7069 9.51533 85.6669 9.68533 85.6969 9.76533C85.7269 9.84533 85.8669 9.97533 85.9769 9.93533C86.1069 9.88533 86.1969 9.66533 86.1269 9.54533V9.53533ZM144.317 47.6253C144.267 47.6053 144.197 47.5853 144.157 47.6053C144.127 47.6253 144.027 47.7253 144.097 47.7953C144.177 47.8753 144.267 47.7553 144.307 47.7253C144.327 47.7153 144.327 47.6153 144.317 47.6153V47.6253ZM147.747 43.3353C147.817 43.4153 147.987 43.4053 148.057 43.3353C148.067 43.3253 148.067 43.2953 148.057 43.2853C147.997 43.2053 147.847 43.1453 147.767 43.1953C147.727 43.2253 147.717 43.3053 147.747 43.3353ZM148.417 49.0053C148.207 48.5653 147.207 48.5253 147.147 48.9453C147.077 49.3653 148.057 49.4553 148.407 49.2053C148.457 49.1653 148.457 49.0753 148.427 49.0153L148.417 49.0053ZM163.637 53.2653C163.727 53.0253 163.377 53.0153 163.307 53.0153C163.207 53.0153 163.067 53.0053 162.997 53.0853C162.967 53.1353 162.967 53.2153 162.997 53.2553C163.107 53.3653 163.527 53.5653 163.627 53.2653H163.637ZM164.587 52.8653C164.587 52.8153 164.567 52.7453 164.517 52.7253C164.347 52.6453 164.197 52.5053 164.007 52.4753C163.847 52.4453 163.697 52.6453 163.547 52.6053C163.187 52.5253 162.817 52.4553 162.447 52.4153C161.927 52.3653 161.287 51.9753 160.877 52.3053C160.847 52.3353 160.837 52.3953 160.857 52.4253C161.057 52.7253 161.657 52.4253 161.897 52.6853C161.987 52.7853 161.957 53.0253 162.237 53.0853C162.877 53.2253 162.767 52.7553 163.197 52.7753C163.447 52.7853 163.657 52.7753 163.837 52.9553C163.977 53.0853 163.887 53.2553 164.187 53.3453C164.517 53.4453 164.537 53.1053 164.567 52.8653H164.587ZM167.107 53.2053C166.997 52.9653 166.657 53.0753 166.457 53.0653C166.247 53.0453 166.037 53.1153 165.837 53.0953C165.647 53.0753 165.427 52.7953 165.217 52.9153C165.027 53.0353 164.967 53.2953 165.157 53.3653C165.997 53.6753 166.317 53.6853 166.887 53.6253C166.957 53.6253 167.187 53.4053 167.097 53.2053H167.107ZM171.137 13.8753C171.167 13.7653 171.087 13.6053 170.967 13.5653C170.927 13.5553 170.867 13.5853 170.847 13.6253C170.817 13.7353 170.897 13.8953 171.017 13.9353C171.057 13.9453 171.127 13.9153 171.137 13.8753ZM155.077 52.3253C155.037 52.3953 155.057 52.5153 155.127 52.5453C155.277 52.6253 155.517 52.5053 155.577 52.3553C155.597 52.2953 155.577 52.2053 155.517 52.1853C155.377 52.1153 155.147 52.1853 155.077 52.3253ZM154.597 51.8753C154.407 51.9253 154.187 51.9353 153.987 51.9153C153.607 51.8753 152.637 51.9253 152.267 51.9153C151.917 51.9153 154.367 53.1553 154.987 52.1853C155.147 51.9353 154.857 51.7953 154.597 51.8653V51.8753ZM151.457 51.7353C151.287 51.6853 150.797 51.6253 150.567 51.5053C150.167 51.3053 149.357 51.1353 149.417 51.5453C149.517 52.1753 153.257 52.2153 151.457 51.7353Z" fill="#6396D1"/>
</svg>
