<svg width="64" height="101" viewBox="0 0 64 101" fill="none" xmlns="http://www.w3.org/2000/svg">
<path d="M28.4022 47.4983C33.0739 45.6919 37.4031 45.0205 41.3965 45.4843C46.4316 46.0483 49.7745 48.4672 51.4286 52.7445C53.0309 56.8902 52.8786 61.9426 50.9649 67.9016C48.9267 74.3105 44.8398 80.3526 38.7077 86.0348C33.0601 91.2776 26.8311 95.2191 20.0208 97.8491C16.3526 99.2679 12.9509 99.6797 9.8122 99.0845C6.11981 98.3578 3.59707 96.2434 2.24746 92.7517C1.33734 90.3951 1.19892 87.5125 1.83912 84.1039C2.56929 80.4115 4.04694 78.1344 6.27207 77.2728C7.23064 76.9025 9.60457 77.4631 9.83988 78.0722L7.85007 80.543C6.39665 82.3459 5.4623 84.5364 5.30658 86.8481C5.2166 88.1735 5.37579 89.3604 5.78067 90.409C7.2168 94.1187 10.705 94.9042 16.2488 92.7587C24.7617 89.4677 32.0981 83.3702 38.2647 74.4628C44.428 65.5588 46.5423 58.5962 44.601 53.575C43.4867 50.6924 41.2027 49.0694 37.7491 48.6991C35.0395 48.443 32.0704 48.9379 28.8417 50.1871C27.4436 50.727 25.7722 51.7236 23.8274 53.1805C21.8826 54.6374 20.5364 55.506 19.7959 55.7932C19.2283 56.0112 18.5604 55.9074 17.7922 55.4783C17.024 55.0492 16.5222 54.5266 16.2834 53.9176C15.8958 52.914 17.3112 51.3879 20.5329 49.3393C26.1425 45.8165 31.7762 41.5046 37.4342 36.4073C43.8985 30.5486 48.5529 25.2609 51.3975 20.5476C54.6677 15.118 55.8789 11.3149 55.038 9.13131C54.1105 6.73316 50.3455 5.31779 45.8606 6.48746C35.787 9.11054 23.9796 16.1458 19.2249 27.0188C17.6676 30.6939 20.3115 32.1716 19.0657 33.1025C17.7611 33.1025 15.1172 31.2372 14.6431 30.0157C13.7814 27.7905 16.3976 23.4303 22.4916 16.9348C28.5856 10.4359 34.8838 5.93377 41.3896 3.41796C46.3659 1.4939 50.6915 1.52851 54.3735 3.51831C58.0521 5.50812 60.3153 7.59483 61.1562 9.77497C64.2603 17.8069 56.1938 28.6038 36.9497 42.1621C32.7348 45.1451 29.8833 46.9238 28.4022 47.4983Z" fill="#003C96" stroke="#003C96" stroke-width="2.447"/>
</svg>
