<svg width="67" height="105" viewBox="0 0 67 105" fill="none" xmlns="http://www.w3.org/2000/svg">
<path d="M21.1633 81.1575L27.2982 73.1936L42.4446 54.0609C49.6316 44.9828 54.75 37.9423 57.7997 32.9394C64.2276 22.3387 66.3539 14.5524 64.1699 9.58497C62.8381 6.55303 60.5076 4.36452 57.1826 3.01946C53.8577 1.67439 50.6926 1.66108 47.7006 2.97507C40.9131 5.95374 33.7173 13.7267 26.113 26.2895C22.4951 32.2646 20.9325 35.8204 21.4341 36.9613C21.6516 37.454 22.1976 37.9068 23.0766 38.3108C23.9555 38.7192 24.6436 38.8124 25.1364 38.5949C25.6691 38.364 26.2328 37.6404 26.8321 36.4241C29.7664 30.4312 33.3488 24.7891 37.5838 19.4932C42.7643 13.0564 47.7627 8.78148 52.5792 6.66845C55.3848 5.4388 57.3202 6.03365 58.3856 8.46186C59.1359 10.1665 59.2602 12.3062 58.7585 14.8764C58.0882 18.2902 54.7722 24.6559 48.8193 33.9604C44.5532 40.628 40.3538 46.723 36.2209 52.2453L15.4901 79.9767C15.4634 79.9767 15.4457 79.9767 15.4191 79.9767C15.1527 80.2519 14.8864 80.5227 14.62 80.789C7.47296 90.5596 3.64197 86.8529 2.12378 93.4895C1.74201 95.1586 2.217 96.0153 3.9172 95.9532C6.02136 95.8733 16.1027 87.976 19.2278 84.842C32.532 85.166 40.8066 89.0104 51.7402 95.4604C53.8977 96.7656 58.1459 100.796 59.5798 102.297C61.1779 101.666 61.6751 99.8552 61.6218 98.3859C59.4111 82.3694 38.1653 81.7435 21.1633 81.153V81.1575Z" fill="#003C96" stroke="#003C96" stroke-width="3" stroke-miterlimit="10"/>
</svg>
