<svg width="49" height="103" viewBox="0 0 49 103" fill="none" xmlns="http://www.w3.org/2000/svg">
<path d="M34.2512 17.4503C25.6676 19.0782 5.26841 36.4173 4.21814 38.7661C3.8028 39.7018 2.5186 38.6324 2.18443 37.5201C1.53517 35.3718 2.69524 34.035 4.17995 32.5122C5.94632 30.6742 40.3571 3.5055 40.6197 3.34319C43.7705 1.38108 48.0098 1.77732 47.3653 3.19519C46.2004 5.75404 44.162 9.58277 42.5675 15.0203C36.9007 34.8323 31.1386 54.9785 26.4028 95.9248C26.2452 99.4003 28.1835 100.451 27.7299 100.713C27.1141 101.071 23.5623 100.923 22.5406 100.484C21.519 100.045 20.7361 98.6364 20.5308 97.9108C19.7144 95.0178 19.2848 83.4075 24.5409 58.7976L34.2464 17.4503H34.2512Z" fill="#003C96" stroke="#003C96" stroke-width="3" stroke-miterlimit="10"/>
</svg>
